<?xml version="1.0" encoding="iso-8859-1"?>
<!-- Uploaded to: SVG Repo, www.svgrepo.com, Generator: SVG Repo Mixer Tools -->
<svg version="1.1" id="Layer_1" xmlns="http://www.w3.org/2000/svg" xmlns:xlink="http://www.w3.org/1999/xlink" 
	 viewBox="0 0 512 512" xml:space="preserve">
<path style="fill:#F00000;" d="M256,0C114.616,0,0,114.616,0,256s114.616,256,256,256s256-114.616,256-256S397.384,0,256,0z"/>
<path d="M320.968,424H191.032c-23.096,0-42-18.896-42-42V130c0-23.096,18.904-42,42-42h129.936c23.104,0,42,18.904,42,42v252
	C362.968,405.104,344.072,424,320.968,424z"/>
<g>
	<rect x="165.44" y="127.648" style="fill:#FFFFFF;" width="183.752" height="247.352"/>
	<circle style="fill:#FFFFFF;" cx="256" cy="107.8" r="7.872"/>
	<path style="fill:#FFFFFF;" d="M273.808,408.432H238.2c-4.92,0-8.904-3.984-8.904-8.904s3.984-8.904,8.904-8.904h35.608
		c4.92,0,8.904,3.984,8.904,8.904S278.728,408.432,273.808,408.432z"/>
</g>
<rect x="295.829" y="276.549" transform="matrix(-0.7071 0.7071 -0.7071 -0.7071 724.5925 286.4012)" width="14.304" height="33.44"/>
<polygon points="281.4,303.024 312.24,272.192 274.904,265.696 "/>
<path style="fill:#F00000;" d="M318.256,252.92h-118.68c-10.816,0-19.664-8.848-19.664-19.664v-32.44
	c0-10.816,8.848-19.664,19.664-19.664h118.68c10.816,0,19.664,8.848,19.664,19.664v32.44
	C337.92,244.072,329.072,252.92,318.256,252.92z"/>
<g>
	<path style="fill:#FFFFFF;" d="M202.672,223.8c2.048,1.048,5.184,2.096,8.44,2.096c3.496,0,5.344-1.448,5.344-3.648
		c0-2.096-1.6-3.296-5.648-4.744c-5.584-1.952-9.232-5.04-9.232-9.936c0-5.736,4.8-10.136,12.736-10.136
		c3.792,0,6.584,0.8,8.584,1.696l-1.696,6.152c-1.352-0.648-3.752-1.592-7.04-1.592c-3.296,0-4.896,1.496-4.896,3.24
		c0,2.152,1.896,3.096,6.24,4.744c5.944,2.2,8.736,5.296,8.736,10.04c0,5.64-4.336,10.432-13.576,10.432c-3.84,0-7.64-1-9.528-2.048
		L202.672,223.8z"/>
	<path style="fill:#FFFFFF;" d="M237.376,200.24v6.992h5.448v5.592h-5.448v8.84c0,2.944,0.704,4.296,3,4.296
		c0.944,0,1.696-0.104,2.24-0.2l0.056,5.744c-1,0.4-2.8,0.648-4.944,0.648c-2.448,0-4.496-0.848-5.696-2.096
		c-1.4-1.448-2.096-3.792-2.096-7.24v-9.992h-3.24v-5.592h3.24v-5.296L237.376,200.24z"/>
	<path style="fill:#FFFFFF;" d="M271.088,219.16c0,8.936-6.344,13.032-12.88,13.032c-7.144,0-12.632-4.696-12.632-12.584
		s5.192-12.936,13.032-12.936C266.088,206.68,271.088,211.824,271.088,219.16z M253.408,219.416c0,4.192,1.752,7.336,4.992,7.336
		c2.944,0,4.84-2.944,4.84-7.336c0-3.648-1.4-7.336-4.84-7.336C254.76,212.072,253.408,215.816,253.408,219.416z"/>
	<path style="fill:#FFFFFF;" d="M275.792,215.272c0-3.6-0.104-5.944-0.2-8.04h6.536l0.248,4.496h0.2
		c1.248-3.544,4.24-5.04,6.592-5.04c0.696,0,1.048,0,1.592,0.104v7.144c-0.544-0.104-1.192-0.2-2.048-0.2
		c-2.8,0-4.696,1.496-5.192,3.84c-0.096,0.496-0.152,1.096-0.152,1.696v12.384h-7.584v-16.384H275.792z"/>
	<path style="fill:#FFFFFF;" d="M300.216,221.856c0.24,3.144,3.344,4.648,6.88,4.648c2.6,0,4.696-0.352,6.744-1l1,5.144
		c-2.496,1-5.536,1.504-8.832,1.504c-8.288,0-13.032-4.792-13.032-12.432c0-6.192,3.84-13.032,12.328-13.032
		c7.888,0,10.888,6.144,10.888,12.184c0,1.296-0.16,2.448-0.248,3h-15.728V221.856z M309.144,216.664c0-1.848-0.8-4.944-4.288-4.944
		c-3.192,0-4.496,2.896-4.696,4.944H309.144z"/>
</g>
</svg>